<svg viewBox="156.68432779999998 0 116.0016 99.82438752783965" xmlns="http://www.w3.org/2000/svg" id="a" style="max-height: 500px" width="116.0016" height="99.82438752783965"><defs><style>.b{fill:#fff;}.b,.c{stroke-width:0px;}.c{fill:#f7921e;}</style></defs><path d="M3.44,171.96h26.6v3.18H3.44v17.91h28.68v3.37H0v-45.42h31.34v3.31H3.44v17.65Z" class="b"/><path d="M88.18,151l-18.69,45.55h-3.76l-18.69-45.55h3.76l16.81,41.53,16.8-41.53h3.76Z" class="b"/><path d="M138.73,196.42h-32.57v-45.42h31.99v4.28h-27.45v16.29h26.21v4.22h-26.21v16.35h28.03v4.28Z" class="b"/><path d="M174.81,180.07h-11.03v16.35h-5.65v-45.42h20.63c10.25,0,15.38,7.14,15.38,14.53.07,6.88-3.7,13.3-13.04,14.08l14.99,16.81h-7.14l-14.15-16.35ZM188.5,165.66c.06-4.54-3.18-9.6-9.73-9.6h-14.99v18.95h14.73c6.81,0,9.99-4.22,9.99-9.34Z" class="b"/><path d="M240.86,161.05c-2.14-3.11-6.49-5-11.23-5.06-6.1,0-10.51,2.53-10.51,6.88s5.06,5.64,11.03,6.49c9.34,1.3,18.23,3.89,18.23,14.08-.06,10.19-9.34,14.01-18.82,14.01-8.69,0-15.38-2.66-19.53-10.32l5.45-3.63c3.24,5.51,8.89,7.46,14.14,7.46s11.49-1.82,11.49-7.53c0-4.93-5.26-6.62-11.61-7.46-9.02-1.23-17.58-3.5-17.58-13.24-.06-9.41,9.34-13.04,17.52-13.04,6.55,0,13.11,1.56,16.94,7.66l-5.52,3.7Z" class="b"/><path d="M296.93,186.88h-24.59l-4.28,9.54h-7.72l20.37-45.42h7.92l20.37,45.42h-7.72l-4.35-9.54ZM284.67,158.65l-9.6,21.61h19.21l-9.6-21.61Z" class="b"/><path d="M356.37,183.31v-32.31h7.27v45.42h-5.52l-25.76-32.05v32.05h-7.33v-45.42h5.58l25.76,32.31Z" class="b"/><path d="M416.26,186.88h-24.59l-4.28,9.54h-7.72l20.37-45.42h7.92l20.37,45.42h-7.72l-4.35-9.54ZM404,158.65l-9.6,21.61h19.21l-9.6-21.61Z" class="b"/><polygon points="209.97 99.37 197.23 76.75 192.32 76.75 202.31 94.47 197.37 94.47 187.38 76.75 182.48 76.75 192.47 94.47 187.53 94.47 177.54 76.75 172.64 76.75 185.39 99.37 209.97 99.37" class="c"/><polygon points="255.1 77.93 229.13 77.94 226.73 82.22 247.07 82.2 244.64 86.51 224.31 86.52 221.9 90.79 242.24 90.78 239.82 95.09 219.48 95.1 217.07 99.37 243.04 99.35 255.1 77.93" class="c"/><polygon points="218.52 0 231.27 22.62 236.18 22.62 226.19 4.9 231.13 4.9 241.11 22.62 246.02 22.62 236.03 4.9 240.97 4.9 250.96 22.62 255.86 22.62 243.11 0 218.52 0" class="c"/><polygon points="173.24 21.44 199.21 21.43 201.61 17.15 181.27 17.17 183.7 12.86 204.03 12.85 206.44 8.58 186.1 8.59 188.52 4.28 208.86 4.27 211.27 0 185.3 .01 173.24 21.44" class="c"/><polygon points="169.59 70.77 182.33 48.15 179.79 43.95 169.81 61.67 167.25 57.45 177.23 39.73 174.69 35.54 164.71 53.25 162.15 49.03 172.13 31.31 169.59 27.12 156.85 49.74 169.59 70.77" class="c"/><polygon points="258.74 28.54 246 51.16 248.54 55.35 258.52 37.63 261.08 41.86 251.1 59.58 253.64 63.77 263.62 46.05 266.18 50.28 256.19 67.99 258.73 72.19 271.48 49.57 258.74 28.54" class="c"/><polygon points="212.96 52.85 210.55 57.12 220.89 75.46 218.47 79.77 208.13 61.43 205.72 65.7 216.06 84.05 213.64 88.34 203.31 70 200.9 74.27 213.65 96.89 225.71 75.46 212.96 52.85" class="c"/><polygon points="210.32 50.36 205.42 50.36 194.52 68.38 189.57 68.38 200.47 50.37 195.57 50.37 184.67 68.39 179.74 68.39 190.64 50.38 185.73 50.38 172.29 72.59 196.88 72.57 210.32 50.36" class="c"/><polygon points="212.28 46.35 209.73 42.16 188.67 42.24 186.09 38.01 207.15 37.94 204.59 33.76 183.54 33.83 180.97 29.62 202.02 29.55 199.47 25.37 173.51 25.46 186.32 46.44 212.28 46.35" class="c"/><polygon points="216.7 52.86 219.25 57.05 240.31 56.97 242.89 61.2 221.83 61.27 224.39 65.45 245.44 65.38 248.01 69.59 226.96 69.66 229.51 73.84 255.47 73.75 242.66 52.77 216.7 52.86" class="c"/><polygon points="217.83 48.69 222.74 48.69 233.64 30.67 238.58 30.67 227.68 48.68 232.59 48.68 243.49 30.66 248.42 30.66 237.52 48.67 242.42 48.67 255.86 26.46 231.27 26.48 217.83 48.69" class="c"/><polygon points="215.71 45.04 218.11 40.77 207.77 22.43 210.2 18.12 220.54 36.46 222.94 32.19 212.6 13.84 215.02 9.55 225.36 27.89 227.77 23.62 215.02 1 202.96 22.43 215.71 45.04" class="c"/><path d="M439.4,156.25c0,3.36-2.19,6.19-6.12,6.19s-6.12-2.83-6.12-6.19,2.21-6.19,6.12-6.19,6.12,2.82,6.12,6.19ZM428.44,156.22c0,2.82,1.75,5.06,4.84,5.06s4.85-2.24,4.85-5.04-1.76-5.06-4.85-5.06-4.84,2.24-4.84,5.07v-.03ZM434.45,157c2.43-.41,2.17-4.02-.59-4.02h-2.92v6.36h1.17v-2.21h1.1l1.76,2.21h1.29v-.24l-1.82-2.12v.02ZM433.85,154.08c1.44,0,1.43,2.05-.03,2.05h-1.71v-2.05h1.75Z" class="b"/></svg>